# xmcd CD database file
#
# Track frame offsets:
#	150
#	23775
#	45300
#	65475
#	86850
#	110175
#	131100
#	145125
#	165375
#	188325
#
# Disc length: 2773 seconds
#
# Revision: 1
# Processed by: cddbd v1.5.1PL2 Copyright (c) Steve Scherf et al.
# Submitted via: freeDBTagger 0.8.2.1
#
DISCID=840ad30a
DTITLE=夏川りみ - RIMITs〜ベスト・デュエット・ソングス〜
DYEAR=2006
DGENRE=misc
TTITLE0=愛よ 愛よ〜子守唄バージョン〜
TTITLE1=童神〜太陽・月バージョン〜
TTITLE2=満天の星の夜
TTITLE3=道しるべ〜かりゆしバージョン〜
TTITLE4=イラヨイ月夜浜〜掛唄バージョン〜
TTITLE5=微笑みにして〜RiMidori Ver.〜
TTITLE6=僕の胸でおやすみ
TTITLE7=あなたの風〜オモトタケミバージョン〜
TTITLE8=ファムレウタ(子守唄)〜ピノアンタバージョン〜
TTITLE9=涙そうそう〜スペシャル・ライブ・ヴァージョン〜
EXTD=
EXTT0=
EXTT1=
EXTT2=
EXTT3=
EXTT4=
EXTT5=
EXTT6=
EXTT7=
EXTT8=
EXTT9=
PLAYORDER=
